<?xml version="1.0" standalone="no"?>
<!DOCTYPE svg PUBLIC "-//W3C//DTD SVG 20010904//EN"
 "http://www.w3.org/TR/2001/REC-SVG-20010904/DTD/svg10.dtd">
<svg version="1.0" xmlns="http://www.w3.org/2000/svg"
 width="512.000000pt" height="512.000000pt" viewBox="0 0 512.000000 512.000000"
 preserveAspectRatio="xMidYMid meet">

<g transform="translate(0.000000,512.000000) scale(0.100000,-0.100000)"
fill="#DFE6EF" stroke="none">
<path d="M372 4489 c-111 -22 -226 -101 -291 -201 -82 -126 -76 20 -76 -1728
0 -1463 1 -1558 18 -1611 40 -127 155 -249 284 -301 l58 -23 2195 0 2195 0 58
23 c129 52 244 174 284 301 17 53 18 148 18 1611 0 1463 -1 1558 -18 1611 -40
127 -155 249 -284 301 l-58 23 -2170 1 c-1194 1 -2189 -2 -2213 -7z m4354
-315 c20 -10 45 -34 59 -59 l25 -42 0 -1513 0 -1513 -25 -42 c-48 -82 166 -75
-2225 -75 -2391 0 -2177 -7 -2225 75 l-25 42 0 1513 0 1513 25 42 c47 82 -167
75 2223 75 1952 0 2137 -1 2168 -16z"/>
<path d="M610 2551 l0 -1411 150 0 150 0 2 1130 3 1130 740 -480 c493 -320
756 -486 789 -495 63 -19 169 -19 232 0 33 10 294 173 789 495 l740 480 3
-1130 2 -1130 150 0 150 0 0 1411 c0 1125 -3 1409 -12 1403 -7 -4 -435 -281
-951 -616 -515 -335 -949 -614 -962 -620 -18 -8 -31 -8 -49 0 -13 6 -446 285
-963 620 -516 334 -944 612 -950 616 -10 6 -13 -278 -13 -1403z"/>
</g>
</svg>
